<?xml version="1.0" encoding="UTF-8" standalone="no"?>
<svg width="85px" height="102px" viewBox="0 0 85 102" version="1.1" xmlns="http://www.w3.org/2000/svg" xmlns:xlink="http://www.w3.org/1999/xlink" xmlns:sketch="http://www.bohemiancoding.com/sketch/ns">
    <!-- Generator: Sketch 3.2.2 (9983) - http://www.bohemiancoding.com/sketch -->
    <title>gift</title>
    <desc>Created with Sketch.</desc>
    <defs></defs>
    <g id="Page-1" stroke="none" stroke-width="1" fill="none" fill-rule="evenodd" sketch:type="MSPage">
        <g id="12019-NNVTUJ" sketch:type="MSLayerGroup" transform="translate(-15.000000, -3.000000)">
            <g id="Group" transform="translate(15.000000, 3.000000)" sketch:type="MSShapeGroup">
                <path d="M0,33 L32,33 L32,51 L0,51 L0,33 Z" id="Fill-34" fill="#3A3C38"></path>
                <path d="M53,33 L85,33 L85,51 L53,51 L53,33 Z" id="Fill-35" fill="#3A3C38"></path>
                <path d="M5,55 L32,55 L32,100 L5,100 L5,55 Z" id="Fill-36" fill="#3A3C38"></path>
                <path d="M53,55 L80,55 L80,100 L53,100 L53,55 Z" id="Fill-37" fill="#3A3C38"></path>
                <path d="M53,33 L53,32 L43.825,32 C41.741,36.906 39.121,47.329 45.683,61.11 L40.266,63.69 C33.631,49.756 35.204,38.59 37.432,32 L32,32 L32,102 L53,102 L53,33" id="Fill-38" fill="#FFFFFF"></path>
                <path d="M19.758,15.841 C18.426,13.453 18.482,11.06 19.924,8.726 C20.834,7.25 22.115,6.534 23.837,6.534 C28.57,6.534 36.363,12.281 39.417,24.554 C31.14,24.891 22.701,21.117 19.758,15.841 L19.758,15.841 Z M62.163,6.534 C63.885,6.534 65.166,7.25 66.077,8.726 C67.518,11.06 67.574,13.453 66.242,15.841 C63.299,21.117 54.869,24.893 46.583,24.554 C49.637,12.281 57.43,6.534 62.163,6.534 L62.163,6.534 Z M40.266,63.69 L45.683,61.11 C39.121,47.329 41.741,36.906 43.825,32 C44.086,31.384 44.34,30.851 44.565,30.413 C45.569,30.51 46.582,30.575 47.6,30.575 C57.782,30.575 67.604,25.717 71.482,18.763 C73.883,14.458 73.776,9.774 71.182,5.573 C69.174,2.323 65.972,0.534 62.163,0.534 C53.943,0.534 46.957,7.798 43,16.778 C39.043,7.798 32.057,0.534 23.837,0.534 C20.028,0.534 16.826,2.323 14.819,5.573 C12.224,9.774 12.117,14.458 14.518,18.763 C18.339,25.615 27.929,30.42 37.95,30.562 C37.775,31.011 37.602,31.496 37.432,32 C35.204,38.59 33.631,49.756 40.266,63.69 L40.266,63.69 Z" id="Fill-39" fill="#3A3C38"></path>
            </g>
        </g>
    </g>
</svg>
