<svg xmlns="http://www.w3.org/2000/svg" width="455" height="79" version="1.1" xmlns:xlink="http://www.w3.org/1999/xlink"><defs><path id="a" d="M0 .95h453.27V79H0"/><path id="c" d="M0 .95h453.27V79H0"/><path id="e" d="M0 .95h453.27V79H0"/></defs><g fill="none" stroke="none" stroke-width="1"><path fill="#BE0000" d="M218.4805 17.0244c-7.067 0-12.815 5.749-12.815 12.814l.052 1.751-1.452.528c-5.664 1.453-9.619 6.558-9.619 12.413 0 7.065 5.748 12.812 12.813 12.812h48.975c7.064 0 12.812-5.747 12.812-12.812 0-5.974-4.229-11.237-10.056-12.515l-1.641-.359.174-1.67c.064-.606.096-1.225.096-1.849 0-9.766-7.944-17.712-17.711-17.712-5.63 0-10.801 2.589-14.184 7.102l-.896 1.197-1.367-.606c-1.637-.726-3.38-1.094-5.181-1.094m37.954 44.076h-48.975c-9.136 0-16.57-7.433-16.57-16.57 0-7.08 4.474-13.312 11.044-15.628.487-8.704 7.723-15.635 16.547-15.635 1.836 0 3.627.297 5.341.882 4.085-4.772 9.945-7.481 16.287-7.481 11.84 0 21.47 9.63 21.47 21.469 0 .213-.005.425-.009.637 6.713 2.196 11.433 8.579 11.433 15.756 0 9.137-7.431 16.57-16.568 16.57"/><path fill="#000" d="M208.1045 67.0479c-2.26 0-4.098 1.837-4.098 4.097 0 2.259 1.838 4.097 4.098 4.097 2.259 0 4.096-1.838 4.096-4.097 0-2.26-1.837-4.097-4.096-4.097m0 11.952c-4.331 0-7.855-3.524-7.855-7.855s3.524-7.854 7.855-7.854c4.33 0 7.854 3.523 7.854 7.854 0 4.331-3.524 7.855-7.854 7.855m47.8057-11.952c-2.258 0-4.097 1.837-4.097 4.097 0 2.259 1.839 4.097 4.097 4.097 2.259 0 4.097-1.838 4.097-4.097 0-2.26-1.838-4.097-4.097-4.097m0 11.952c-4.331 0-7.854-3.524-7.854-7.855s3.523-7.854 7.854-7.854c4.332 0 7.854 3.523 7.854 7.854 0 4.331-3.522 7.855-7.854 7.855"/><g transform="translate(1)"><mask id="b" fill="#fff"><use xlink:href="#a"/></mask><path fill="#000" d="M195.5654 27.188c-.74 0-1.445-.444-1.74-1.175l-9.1-22.48c-.39-.962.074-2.056 1.035-2.446.96-.388 2.058.074 2.446 1.037l9.099 22.48c.39.961-.074 2.056-1.035 2.445-.232.094-.471.139-.705.139" mask="url(#b)"/></g><g transform="translate(1)"><mask id="d" fill="#fff"><use xlink:href="#c"/></mask><path fill="#231F1F" d="M1.541 69.6738c.03.71.169 1.263.415 1.653.246.393.635.662 1.167.806.532.145 1.289.218 2.272.218.982 0 1.753-.073 2.311-.218.558-.144.998-.413 1.314-.802.319-.39.559-.937.723-1.642.162-.703.309-1.715.437-3.036.127-1.332.179-2.351.157-3.059-.027-.706-.162-1.253-.408-1.644-.244-.39-.629-.657-1.152-.799-.524-.144-1.286-.213-2.286-.213-1.009 0-1.787.069-2.341.213-.55.142-.987.409-1.309.802-.321.392-.562.939-.724 1.645-.157.704-.305 1.723-.432 3.055-.125 1.302-.172 2.309-.144 3.021m-.79-6.656c.262-.902.627-1.6 1.098-2.098.468-.498 1.078-.844 1.828-1.038.746-.194 1.735-.291 2.962-.291 1.216 0 2.179.097 2.884.291.707.194 1.247.54 1.617 1.036.375.497.601 1.196.687 2.101.08.905.051 2.116-.096 3.634-.144 1.509-.349 2.717-.609 3.619-.261.903-.625 1.603-1.09 2.097-.466.497-1.076.841-1.83 1.036-.753.196-1.74.293-2.958.293-1.208 0-2.169-.097-2.877-.293-.709-.195-1.247-.541-1.624-1.039-.376-.499-.606-1.196-.693-2.094-.088-.896-.061-2.102.087-3.619.145-1.524.35-2.736.614-3.635" mask="url(#d)"/></g><path fill="#231F1F" d="M14.9287 63.8896h1.475l-.377 3.944h5.066l.381-3.944h1.475l-.931 9.659h-1.475l.437-4.536h-5.07l-.434 4.536h-1.477l.93-9.659zm17.0108 9.6587h-1.477l.821-8.497h-4.136l-.551 5.714c-.176 1.856-1.038 2.783-2.586 2.783h-.716l.115-1.196h.218c.552-.01.922-.111 1.115-.305.193-.193.323-.633.389-1.321l.659-6.836h7.078l-.929 9.658zm9.246-2.8198c.056-.578.008-.999-.144-1.262-.151-.266-.439-.436-.86-.515-.423-.08-1.103-.12-2.038-.12-.794 0-1.375.113-1.742.336-.368.228-.584.667-.649 1.323-.052.548-.014.975.108 1.279.123.304.344.516.654.639.313.12.74.182 1.285.182.767 0 1.364-.033 1.797-.097.434-.064.793-.229 1.079-.498.285-.269.456-.69.51-1.267m.165-1.897l.133-1.381c.079-.808.062-1.392-.044-1.755-.106-.364-.341-.605-.706-.723-.369-.119-.971-.179-1.814-.179-.603 0-1.062.04-1.381.117-.32.079-.557.222-.718.431-.162.207-.269.516-.327.928l-.009.278h-1.498c.082-.839.3-1.461.654-1.87.357-.408.802-.668 1.339-.783.537-.115 1.242-.171 2.115-.171 1.001 0 1.791.079 2.362.239.576.157.996.484 1.267.978.27.494.36 1.225.266 2.195l-.616 6.413h-1.39l.174-1.216c-.264.409-.533.711-.804.908-.27.196-.598.329-.985.395-.389.065-.92.099-1.59.099-.871 0-1.572-.079-2.096-.235-.526-.156-.916-.459-1.165-.909-.252-.451-.336-1.101-.255-1.954.076-.793.282-1.404.616-1.834.333-.43.774-.721 1.318-.871.543-.15 1.223-.224 2.034-.224.749 0 1.327.038 1.738.113.41.075.715.188.907.342.193.154.351.378.475.669m9.9845-7.5429h.905c-.046.483-.154.853-.319 1.112-.165.257-.409.438-.729.541-.322.103-.755.156-1.302.156-.549 0-.973-.053-1.274-.156-.301-.103-.51-.284-.628-.541-.113-.259-.148-.629-.101-1.112h.904c-.028.263-.002.462.071.594.073.132.199.219.37.262.177.043.422.066.744.066.316 0 .567-.023.751-.066.182-.043.323-.13.423-.262.098-.132.158-.331.185-.594zm-6.546 12.26l.929-9.658h1.46l-.759 7.889 5.701-7.889h1.802l-.928 9.658h-1.458l.757-7.871-5.679 7.871h-1.825zm11.584-9.659h1.476l-.378 3.944h5.065l.381-3.944h1.476l-.93 9.659h-1.477l.438-4.536h-5.069l-.436 4.536h-1.478l.932-9.659zm20.9268 6.1573h1.42c-.114.754-.276 1.37-.49 1.853-.211.48-.488.853-.831 1.117-.342.265-.768.45-1.28.557-.507.106-1.149.16-1.921.16-.822 0-1.489-.084-1.997-.251-.507-.167-.901-.436-1.174-.811-.274-.376-.45-.877-.527-1.509-.073-.629-.066-1.437.029-2.425.125-1.287.344-2.293.658-3.011.313-.722.781-1.234 1.399-1.543.618-.306 1.462-.46 2.537-.46.869 0 1.589.086 2.149.258.559.172.978.48 1.253.919.275.443.39 1.051.344 1.826l-.028.313h-1.4c.052-.555.027-.979-.074-1.272-.102-.295-.334-.51-.697-.644-.361-.136-.916-.203-1.664-.203-.745 0-1.31.095-1.692.287-.377.192-.661.55-.847 1.074-.189.525-.335 1.33-.438 2.418-.105 1.069-.105 1.875-.006 2.417.099.541.324.914.674 1.115.35.203.888.305 1.617.305.579 0 1.041-.038 1.387-.112.351-.073.626-.199.831-.38.203-.179.36-.421.469-.724.113-.302.212-.727.299-1.274m9.7559-6.1573h1.493l-4.024 10.951c-.297.814-.599 1.441-.907 1.882-.305.441-.642.751-1.009.929-.364.179-.8.267-1.311.267-.316 0-.59-.036-.817-.112l.114-1.175c.174.049.356.073.541.073.389-.007.691-.081.915-.222.225-.14.446-.426.665-.861.216-.431.498-1.121.846-2.07h-.627l-2.59-9.662h1.475l2.195 8.588 3.041-8.588zm2.9648 0h8.021l-.929 9.659h-1.477l.818-8.48h-5.07l-.816 8.48h-1.476l.929-9.659zm16.7793 3.9786c.074-.753.046-1.343-.084-1.771-.129-.427-.383-.737-.76-.928-.377-.19-.913-.284-1.615-.284-.7 0-1.256.096-1.668.292-.408.195-.716.507-.922.937-.205.429-.344 1.013-.422 1.754h5.471zm1.351 1.125h-6.951c-.061.756-.076 1.359-.039 1.806.036.445.139.801.311 1.064.174.262.429.447.765.552.34.105.801.158 1.384.158.792 0 1.381-.048 1.767-.142.39-.091.662-.252.818-.48.156-.228.256-.575.301-1.04l.031-.311h1.459c-.085.889-.305 1.559-.653 2.013-.353.453-.828.753-1.426.899-.597.148-1.402.221-2.409.221-1.101 0-1.941-.147-2.514-.441-.574-.294-.955-.8-1.14-1.516-.184-.717-.211-1.741-.084-3.075.092-.957.25-1.755.472-2.392.224-.637.521-1.144.888-1.521s.822-.649 1.364-.816c.54-.166 1.194-.25 1.961-.25 1.496 0 2.543.342 3.129 1.022.584.682.796 1.853.636 3.511l-.07.738zm3.7008-.3277c-.067 1.035-.072 1.806-.011 2.313.061.508.262.894.603 1.159.344.265.899.398 1.669.398.848 0 1.479-.135 1.894-.404.414-.27.695-.659.84-1.163.147-.507.27-1.275.367-2.303.096-.99.123-1.73.081-2.222-.042-.491-.239-.871-.593-1.138-.354-.27-.945-.403-1.78-.403-.845 0-1.473.122-1.879.369-.404.245-.68.613-.827 1.104-.142.488-.265 1.251-.364 2.29m-.365 3.776l-.507 5.276h-1.478l1.333-13.828h1.438l-.172 1.233c.401-.524.863-.892 1.385-1.103.524-.209 1.134-.313 1.832-.313 1.105 0 1.922.192 2.451.577.521.382.84.92.946 1.611.108.693.107 1.621-.008 2.79-.081.848-.19 1.561-.328 2.142-.133.578-.35 1.087-.638 1.524-.288.435-.7.775-1.228 1.018-.528.244-1.201.366-2.014.366-.73 0-1.347-.09-1.851-.267-.501-.177-.891-.518-1.161-1.026m14.5661-.5728l3.975-7.979h2.343l-.93 9.659h-1.457l.806-8.389-4.257 8.389h-1.291l-2.616-8.389-.806 8.389h-1.462l.93-9.659h2.325l2.44 7.979zm14.6328-1.1402c.056-.578.009-.999-.143-1.262-.149-.266-.438-.436-.86-.515-.424-.08-1.103-.12-2.037-.12-.793 0-1.375.113-1.744.336-.367.228-.584.667-.646 1.323-.055.548-.018.975.107 1.279.123.304.342.516.652.639.313.12.742.182 1.289.182.762 0 1.36-.033 1.793-.097.435-.064.793-.229 1.079-.498.286-.269.454-.69.51-1.267m.167-1.897l.131-1.381c.08-.808.066-1.392-.043-1.755-.104-.364-.342-.605-.706-.723-.369-.119-.972-.179-1.813-.179-.602 0-1.064.04-1.382.117-.318.079-.556.222-.718.431-.161.207-.27.516-.326.928l-.01.278h-1.497c.081-.839.298-1.461.653-1.87.356-.408.801-.668 1.339-.783.538-.115 1.243-.171 2.115-.171 1.003 0 1.791.079 2.364.239.575.157.995.484 1.267.978.269.494.358 1.225.264 2.195l-.617 6.413h-1.387l.174-1.216c-.267.409-.536.711-.806.908-.27.196-.599.329-.984.395-.39.065-.922.099-1.592.099-.869 0-1.571-.079-2.096-.235-.525-.156-.914-.459-1.164-.909-.253-.451-.335-1.101-.255-1.954.077-.793.282-1.404.615-1.834.333-.43.774-.721 1.32-.871.542-.15 1.222-.224 2.034-.224.748 0 1.325.038 1.737.113.413.075.714.188.908.342.193.154.35.378.475.669m5.4405-.166c-.071 1.035-.074 1.806-.011 2.313.06.508.262.894.604 1.159.343.265.896.398 1.671.398.847 0 1.474-.135 1.889-.404.417-.27.698-.659.844-1.163.148-.507.268-1.275.365-2.303.097-.99.123-1.73.081-2.222-.042-.491-.24-.871-.592-1.138-.354-.27-.948-.403-1.78-.403-.845 0-1.473.122-1.879.369-.407.245-.681.613-.826 1.104-.146.488-.267 1.251-.366 2.29m-.366 3.776l-.507 5.276h-1.476l1.332-13.828h1.438l-.172 1.233c.402-.524.864-.892 1.388-1.103.522-.209 1.132-.313 1.829-.313 1.106 0 1.925.192 2.449.577.524.382.841.92.949 1.611.108.693.104 1.621-.008 2.79-.084.848-.191 1.561-.328 2.142-.136.578-.349 1.087-.638 1.524-.291.435-.701.775-1.231 1.018-.528.244-1.2.366-2.011.366-.733 0-1.35-.09-1.852-.267-.503-.177-.888-.518-1.162-1.026m11.6677-8.5519l-.375 3.888h.572l3.858-3.888h1.767l-4.535 4.444 4.362 5.215h-1.918l-3.642-4.644h-.572l-.449 4.644h-1.474l.93-9.659h1.476zm14.1768 3.9786c.073-.753.045-1.343-.084-1.771-.129-.427-.382-.737-.759-.928-.379-.19-.916-.284-1.617-.284-.7 0-1.256.096-1.667.292-.411.195-.72.507-.924.937-.202.429-.345 1.013-.423 1.754h5.474zm1.348 1.125h-6.949c-.062.756-.078 1.359-.039 1.806.036.445.138.801.309 1.064.173.262.429.447.768.552.34.105.798.158 1.382.158.793 0 1.383-.048 1.769-.142.39-.091.661-.252.815-.48.158-.228.258-.575.305-1.04l.028-.311h1.459c-.087.889-.304 1.559-.655 2.013-.35.453-.826.753-1.424.899-.597.148-1.402.221-2.406.221-1.102 0-1.942-.147-2.515-.441-.576-.294-.958-.8-1.14-1.516-.183-.717-.213-1.741-.084-3.075.091-.957.249-1.755.473-2.392.224-.637.521-1.144.885-1.521.369-.377.824-.649 1.363-.816.543-.166 1.198-.25 1.96-.25 1.501 0 2.544.342 3.13 1.022.585.682.797 1.853.639 3.511l-.073.738zm4.7858-3.9248h-3.338l.115-1.178h8.149l-.113 1.178h-3.336l-.819 8.48h-1.474l.816-8.48zm105.8017-1.1788h8.021l-.928 9.659h-1.478l.818-8.48h-5.068l-.818 8.48h-1.476l.929-9.659zm16.752 4.8291c.078-.82.1-1.477.061-1.965-.036-.486-.142-.862-.32-1.129-.176-.264-.431-.449-.77-.551-.338-.103-.799-.154-1.387-.154-.759 0-1.339.098-1.739.292-.405.192-.706.558-.91 1.095-.206.537-.36 1.349-.464 2.431-.105 1.086-.105 1.897 0 2.429.104.536.34.897.698 1.086.361.188.923.284 1.682.284.583 0 1.05-.049 1.405-.149.353-.099.647-.279.876-.541.228-.261.411-.639.548-1.133.132-.495.239-1.161.32-1.995m1.495 0c-.099 1.011-.252 1.839-.459 2.488-.208.646-.493 1.154-.857 1.521-.365.368-.824.628-1.369.779-.554.151-1.243.227-2.075.227-.825 0-1.492-.076-2.009-.226-.518-.148-.924-.408-1.213-.778-.292-.369-.477-.877-.559-1.522-.082-.643-.074-1.468.022-2.47.129-1.341.359-2.371.689-3.091.33-.719.811-1.219 1.438-1.5.632-.283 1.495-.423 2.594-.423.846 0 1.527.074 2.041.222.516.149.919.405 1.212.773.293.365.481.868.565 1.511.084.642.078 1.47-.02 2.489m8.3351-1.9174h3.667c.897 0 1.597-.065 2.096-.197.499-.133.884-.398 1.154-.797.27-.399.445-1.003.521-1.81.104-1.071.01-1.821-.277-2.249-.295-.43-.88-.644-1.765-.644h-4.847l-.549 5.697zm-.131 1.346l-.52 5.401h-1.529l1.33-13.809h6.579c.823 0 1.493.14 2.007.419.518.279.882.714 1.094 1.303.21.59.274 1.339.186 2.244-.109 1.113-.344 1.993-.714 2.642-.371.647-.903 1.11-1.6 1.386-.693.276-1.609.414-2.741.414h-4.092zm17.3663.5714c.078-.82.098-1.477.06-1.965-.035-.486-.142-.862-.32-1.129-.178-.264-.432-.449-.769-.551-.338-.103-.801-.154-1.389-.154-.759 0-1.339.098-1.738.292-.404.192-.708.558-.91 1.095-.205.537-.36 1.349-.464 2.431-.105 1.086-.105 1.897 0 2.429.104.536.339.897.698 1.086.36.188.924.284 1.681.284.584 0 1.051-.049 1.405-.149.355-.099.648-.279.877-.541.227-.261.412-.639.547-1.133.133-.495.24-1.161.322-1.995m1.494 0c-.098 1.011-.253 1.839-.458 2.488-.21.646-.493 1.154-.859 1.521-.363.368-.822.628-1.368.779-.555.151-1.242.227-2.076.227-.823 0-1.491-.076-2.008-.226-.517-.148-.925-.408-1.213-.778-.291-.369-.477-.877-.558-1.522-.082-.643-.075-1.468.02-2.47.13-1.341.36-2.371.69-3.091.331-.719.811-1.219 1.439-1.5.63-.283 1.493-.423 2.594-.423.846 0 1.527.074 2.039.222.516.149.92.405 1.213.773.292.365.482.868.566 1.511.082.642.077 1.47-.021 2.489m8.6496 1.3282h1.415c-.109.754-.273 1.37-.487 1.853-.211.48-.49.853-.829 1.117-.342.265-.769.45-1.281.557-.507.106-1.149.16-1.922.16-.819 0-1.485-.084-1.997-.251-.506-.167-.899-.436-1.174-.811-.274-.376-.452-.877-.525-1.509-.075-.629-.066-1.437.029-2.425.125-1.287.342-2.293.658-3.011.311-.722.78-1.234 1.397-1.543.62-.306 1.464-.46 2.537-.46.871 0 1.589.086 2.149.258.562.172.976.48 1.253.919.276.443.391 1.051.346 1.826l-.028.313h-1.402c.052-.555.03-.979-.074-1.272-.103-.295-.334-.51-.697-.644-.361-.136-.916-.203-1.662-.203-.746 0-1.313.095-1.691.287-.379.192-.664.55-.85 1.074-.189.525-.332 1.33-.437 2.418-.104 1.069-.106 1.875-.007 2.417.101.541.325.914.675 1.115.347.203.886.305 1.617.305.578 0 1.038-.038 1.386-.112.352-.073.627-.199.83-.38.206-.179.363-.421.473-.724.11-.302.213-.727.298-1.274m10.1377 0h1.42c-.114.754-.275 1.37-.488 1.853-.213.48-.492.853-.831 1.117-.343.265-.769.45-1.279.557-.51.106-1.15.16-1.923.16-.822 0-1.486-.084-1.996-.251-.507-.167-.901-.436-1.174-.811-.275-.376-.452-.877-.527-1.509-.075-.629-.065-1.437.028-2.425.126-1.287.345-2.293.657-3.011.315-.722.781-1.234 1.402-1.543.616-.306 1.462-.46 2.535-.46.871 0 1.589.086 2.151.258.556.172.973.48 1.251.919.274.443.392 1.051.344 1.826l-.029.313h-1.397c.05-.555.026-.979-.075-1.272-.104-.295-.336-.51-.697-.644-.362-.136-.917-.203-1.665-.203-.745 0-1.311.095-1.689.287-.381.192-.666.55-.85 1.074-.188.525-.335 1.33-.437 2.418-.105 1.069-.106 1.875-.007 2.417.098.541.327.914.674 1.115.349.203.886.305 1.62.305.575 0 1.035-.038 1.384-.112.35-.073.625-.199.829-.38.205-.179.362-.421.474-.724.109-.302.21-.727.295-1.274m3.1484 3.5014l.929-9.658h1.46l-.764 7.908 5.721-7.908h1.787l-.928 9.658h-1.459l.757-7.853-5.677 7.853h-1.826zm10.6533 0l.931-9.658h1.457l-.76 7.908 5.721-7.908h1.787l-.93 9.658h-1.46l.757-7.853-5.674 7.853h-1.829zm15.042 0l.93-9.658h1.457l-.762 7.908 5.721-7.908h1.787l-.928 9.658h-1.459l.758-7.853-5.677 7.853h-1.827zm24.5557-4.6084h1.493c-.117 1.227-.367 2.179-.748 2.858-.379.675-.976 1.161-1.787 1.456-.811.296-1.945.443-3.396.443-1.101 0-1.984-.095-2.652-.289-.664-.194-1.181-.537-1.548-1.028-.369-.494-.604-1.196-.701-2.107-.102-.913-.08-2.106.063-3.583.14-1.47.347-2.664.622-3.583.273-.919.643-1.632 1.109-2.142.471-.511 1.057-.867 1.763-1.069.709-.203 1.61-.306 2.703-.306 1.09 0 1.963.091 2.623.266.661.178 1.16.45 1.488.816.332.365.547.819.644 1.36.099.543.131 1.242.096 2.095l-1.486-.017c-.012-.909-.085-1.57-.217-1.986-.136-.416-.447-.717-.934-.905-.486-.188-1.267-.282-2.345-.282-.816 0-1.48.081-1.998.242-.513.16-.936.445-1.267.853-.331.412-.592.987-.787 1.727-.194.742-.349 1.719-.467 2.931-.118 1.228-.152 2.201-.099 2.923.049.721.199 1.285.452 1.685.253.402.621.678 1.104.829.485.15 1.137.225 1.963.225.833 0 1.513-.051 2.035-.156.52-.103.934-.279 1.246-.528.308-.25.539-.59.694-1.02.154-.431.267-.999.334-1.708"/><path fill="#231F1F" d="M406.3193 65.8428h8.075l.585-6.085h1.53l-1.327 13.791h-1.531l.612-6.36h-8.074l-.613 6.36h-1.528l1.325-13.791h1.531l-.585 6.085zm11.5186 7.7055l1.33-13.808h8.532l-.135 1.399h-6.985l-1.194 12.409h-1.548z"/><path fill="#BE0000" d="M26.7119 47.9404H1.9889l3.003-31.18h24.72l-.598 6.237h-16.706l-.578 6.012h13.138l-.598 6.237h-13.139l-.624 6.457h16.706l-.601 6.237zm19.2002-23.6069h8.687l-8.269 11.804 6.215 11.803h-8.685l-3.324-7.127-4.696 7.127h-8.683l8.484-11.803-5.992-11.804h8.69l3.098 7.126 4.475-7.126zm16.7891 17.5928h6.682c1.187 0 1.84-.591 1.952-1.781l.794-8.24c.044-.446-.07-.816-.337-1.113-.269-.298-.628-.447-1.072-.447h-1.559c-.565 0-1.16.044-1.792.133-.634.092-1.223.195-1.768.314-.637.119-1.258.266-1.872.445l-1.028 10.689zm-.577 6.014l-.732 7.573h-7.794l3.004-31.18h6.905l.228 2.226c.82-.503 1.695-.948 2.625-1.338.803-.323 1.693-.628 2.668-.911.978-.282 1.975-.424 2.983-.424h2.003c2.02 0 3.581.61 4.679 1.827 1.103 1.217 1.554 2.838 1.362 4.857l-.988 10.245c-.215 2.226-1.012 3.969-2.395 5.234-1.387 1.262-3.193 1.891-5.418 1.891h-9.13zm29.4451-23.6068l.164 2.895c.738-.594 1.549-1.143 2.432-1.648.751-.416 1.629-.802 2.625-1.159 1.003-.354 2.095-.535 3.284-.535h2.003l-.664 6.906h-3.788c-.769 0-1.512.075-2.224.222-.713.15-1.345.297-1.892.445-.645.208-1.247.43-1.804.669l-1.521 15.812h-7.797l2.276-23.607h6.906zm21.3301 5.1221c-1.188 0-1.838.594-1.953 1.781l-.235 2.45h7.57l.236-2.45c.116-1.187-.421-1.781-1.608-1.781h-4.01zm-9.725 1.518c.214-2.212 1.013-3.947 2.399-5.204 1.381-1.255 3.185-1.882 5.412-1.882h8.91c2.227 0 3.908.631 5.053 1.892 1.139 1.263 1.603 3.007 1.387 5.236l-.792 8.239h-15.368l-.165 1.685c-.039.423.076.775.345 1.057.272.281.63.422 1.071.422h8.373c1.536-.169 3.065-.338 4.595-.507l-.536 5.581c-1.747.238-3.526.36-5.336.36-1.569.267-3.261.399-5.074.399h-5.254c-2.022 0-3.577-.603-4.683-1.815-1.1-1.21-1.551-2.821-1.358-4.83l1.021-10.633zm33.5629.708c-.044.446.072.819.342 1.113.263.299.624.448 1.068.448h8.018c2.02 0 3.58.602 4.681 1.81 1.101 1.206 1.555 2.81 1.363 4.812l-.171 1.766c-.192 2-.953 3.607-2.289 4.811-1.336 1.209-3.009 1.81-5.031 1.81h-5.835c-1.989 0-3.803-.132-5.441-.398-1.93 0-3.79-.118-5.577-.351l.557-5.776c1.587.172 3.186.343 4.808.513h9.397c.445 0 .829-.142 1.154-.426.322-.285.504-.64.546-1.067l.145-1.492h-9.576c-2.018 0-3.58-.607-4.68-1.825-1.101-1.218-1.553-2.835-1.356-4.857l.15-1.558c.192-2.019.954-3.639 2.289-4.856 1.336-1.217 3.015-1.825 5.033-1.825h15.145l-.558 5.789h-12.473c-.442 0-.832.15-1.154.447-.325.298-.51.667-.555 1.112m25.8359 0c-.044.446.07.819.337 1.113.267.299.624.448 1.072.448h8.018c2.017 0 3.577.602 4.677 1.81 1.105 1.206 1.56 2.81 1.365 4.812l-.168 1.766c-.195 2-.958 3.607-2.289 4.811-1.336 1.209-3.011 1.81-5.031 1.81h-5.835c-1.992 0-3.804-.132-5.442-.398-1.933 0-3.789-.118-5.579-.351l.557-5.776c1.589.172 3.189.343 4.806.513h9.398c.447 0 .831-.142 1.155-.426.322-.285.507-.64.547-1.067l.144-1.492h-9.576c-2.018 0-3.58-.607-4.68-1.825-1.101-1.218-1.552-2.835-1.357-4.857l.15-1.558c.194-2.019.958-3.639 2.293-4.856 1.334-1.217 3.012-1.825 5.03-1.825h15.143l-.556 5.789h-12.473c-.444 0-.829.15-1.152.447-.326.298-.512.667-.554 1.112"/><path fill="#BE0000" d="M312.0264 30.5693l-7.31 11.135h-6.235l-5.163-11.135-1.675 17.372h-8.017l3.004-31.18h8.462l7.323 16.481 10.496-16.481h8.464l-3.004 31.18h-8.018l1.673-17.372zm21.1543 11.5821c.564 0 1.162-.045 1.798-.135.631-.09 1.217-.192 1.763-.312.636-.116 1.259-.267 1.871-.445l.257-2.672h-6.457c-.448 0-.835.149-1.158.446-.324.296-.512.667-.555 1.112l-.042.445c-.043.447.071.817.338 1.114.269.297.624.447 1.073.447h1.112zm-4.385 6.236c-2.019 0-3.582-.609-4.678-1.826-1.101-1.218-1.555-2.837-1.362-4.857l.195-2.004c.194-2.019.959-3.635 2.293-4.855 1.333-1.217 3.012-1.826 5.03-1.826h9.132l.165-1.712c.042-.426-.073-.783-.344-1.067-.269-.285-.628-.428-1.071-.428h-3.852c-1.383 0-2.686.069-3.92.209-1.442.184-2.877.276-4.304.276l.529-5.496c1.658-.251 3.333-.377 5.026-.377 1.483-.27 3.084-.404 4.807-.404h4.944c2.018 0 3.578.607 4.682 1.818 1.099 1.211 1.554 2.819 1.361 4.829l-1.666 17.274h-6.903l-.233-2.227c-.82.504-1.693.95-2.622 1.335-.803.329-1.695.631-2.671.915-.977.282-1.971.423-2.979.423h-1.559zm29.3498-6.4611h6.682c1.185 0 1.839-.591 1.952-1.781l.796-8.24c.043-.446-.07-.816-.337-1.113-.269-.298-.63-.447-1.072-.447h-1.559c-.566 0-1.161.044-1.792.133-.634.092-1.225.195-1.769.314-.637.119-1.259.266-1.87.445l-1.031 10.689zm-.578 6.014l-.729 7.573h-7.793l3.001-31.18h6.906l.227 2.226c.82-.503 1.696-.948 2.625-1.338.803-.323 1.695-.628 2.67-.911.977-.282 1.974-.424 2.983-.424h2.003c2.019 0 3.579.61 4.679 1.827 1.101 1.217 1.552 2.838 1.36 4.857l-.987 10.245c-.216 2.226-1.012 3.969-2.398 5.234-1.383 1.262-3.189 1.891-5.416 1.891h-9.131zm32.2626-8.9081h-3.343l-.859 8.909h-7.791l2.271-23.607h7.792l-.835 8.685h3.565l2.922-4.9c.321-.564.707-1.098 1.154-1.604.451-.505.963-.949 1.535-1.336.571-.385 1.202-.697 1.892-.936.691-.237 1.453-.356 2.286-.356.442 0 .881.022 1.305.067.427.045.805.097 1.121.158l1.092.222-.577 6.012h-1.558c-.565 0-1.049.142-1.446.422-.398.285-.703.588-.913.913l-2.656 4.457 5.548 11.803h-8.464l-4.041-8.909zm25.6406-9.5766c-1.188 0-1.838.594-1.952 1.781l-.236 2.45h7.573l.235-2.45c.111-1.187-.424-1.781-1.61-1.781h-4.01zm-9.722 1.518c.211-2.212 1.011-3.947 2.395-5.204 1.383-1.255 3.186-1.882 5.411-1.882h8.913c2.226 0 3.908.631 5.053 1.892 1.138 1.263 1.603 3.007 1.387 5.236l-.793 8.239h-15.367l-.161 1.685c-.042.423.071.775.342 1.057.27.281.626.422 1.074.422h8.373c1.529-.169 3.061-.338 4.59-.507l-.539 5.581c-1.742.238-3.522.36-5.333.36-1.566.267-3.261.399-5.072.399h-5.257c-2.02 0-3.579-.603-4.679-1.815-1.101-1.21-1.553-2.821-1.361-4.83l1.024-10.633zm40.5951-.6284l-1.695 17.596h-7.794l1.695-17.596h-7.353l.581-6.011h22.492l-.576 6.011h-7.35z"/><path fill="#000" d="M241.9473 72.3394h-20.666c-1.038 0-1.878-.841-1.878-1.878 0-1.038.84-1.88 1.878-1.88h20.666c1.039 0 1.878.842 1.878 1.88 0 1.037-.839 1.878-1.878 1.878"/><g transform="translate(1)"><mask id="f" fill="#fff"><use xlink:href="#e"/></mask><path fill="#000" d="M186.4658 4.707h-7.515c-1.038 0-1.879-.841-1.879-1.878 0-1.038.841-1.879 1.879-1.879h7.515c1.037 0 1.878.841 1.878 1.879 0 1.037-.841 1.878-1.878 1.878" mask="url(#f)"/></g></g></svg>