<?xml version="1.0" encoding="UTF-8" standalone="no"?>
<svg width="225px" height="226px" viewBox="0 0 225 226" version="1.1" xmlns="http://www.w3.org/2000/svg" xmlns:xlink="http://www.w3.org/1999/xlink" xmlns:sketch="http://www.bohemiancoding.com/sketch/ns">
    <!-- Generator: Sketch 3.2.2 (9983) - http://www.bohemiancoding.com/sketch -->
    <title>Untitled</title>
    <desc>Created with Sketch.</desc>
    <defs></defs>
    <g id="Page-1" stroke="none" stroke-width="1" fill="none" fill-rule="evenodd" sketch:type="MSPage">
        <g id="1440769139_airoplane" sketch:type="MSLayerGroup" transform="translate(5.000000, 5.000000)" stroke="#B2B2B2" stroke-width="15">
            <path d="M121.208,111.893 C122.923,111.893 123.936,112.909 124.25,114.934 L156.542,213.214 C157.32,214.933 158.414,215.788 159.818,215.788 C160.286,215.788 161.064,215.4 162.158,214.618 L169.412,207.13 C170.19,206.819 170.582,206.275 170.582,205.492 C170.582,205.181 170.659,204.322 170.816,202.918 C170.969,201.514 171.049,200.658 171.049,200.344 L171.049,66.964 C171.049,66.653 171.086,66.185 171.166,65.56 C171.243,64.938 171.517,64.47 171.985,64.156 L208.722,28.822 C210.906,26.95 212.466,24.259 213.403,20.749 C214.339,17.239 214.806,14.08 214.806,11.272 L214.806,9.634 L214.806,7.762 C214.024,5.111 212.701,3.279 210.828,2.263 C208.956,1.25 206.927,0.742 204.744,0.742 C201.153,0.742 197.566,1.407 193.98,2.731 C190.389,4.058 187.347,6.047 184.854,8.698 L150.69,44.734 L10.994,44.734 C10.68,44.734 10.292,44.891 9.824,45.202 C9.356,45.516 9.041,45.827 8.888,46.138 L0.932,53.86 C0.618,54.174 0.464,54.485 0.464,54.796 L0.464,55.966 C0.464,56.434 0.501,57.019 0.581,57.721 C0.658,58.423 1.085,58.854 1.868,59.008 L101.786,91.534 C103.033,92.316 103.658,93.329 103.658,94.576 C103.658,95.358 103.501,95.903 103.19,96.214 L74.173,127.336 C74.016,127.65 73.705,127.885 73.237,128.038 C72.769,128.195 72.455,128.271 72.301,128.271 L33.223,128.271 C33.066,128.271 32.715,128.429 32.17,128.74 C31.622,129.054 31.194,129.289 30.883,129.441 L21.757,138.801 C21.6,139.269 21.523,139.583 21.523,139.738 L21.523,139.972 C21.523,142 22.302,143.327 23.863,143.95 L47.965,149.8 C48.587,149.957 49.172,150.268 49.72,150.737 C50.264,151.205 50.539,151.753 50.539,152.375 C50.539,152.689 50.382,153.157 50.071,153.778 C50.071,153.936 49.991,154.092 49.837,154.247 C49.68,154.404 49.603,154.561 49.603,154.715 L45.625,158.927 C43.596,161.425 42.583,164.466 42.583,168.053 C42.583,171.329 44.298,172.967 47.731,172.967 C51.786,172.967 54.905,171.954 57.091,169.925 C57.87,169.146 58.729,168.21 59.665,167.117 C60.601,166.027 61.771,165.479 63.175,165.479 C63.643,165.479 64.188,165.596 64.813,165.83 C65.435,166.063 65.826,166.572 65.983,167.351 L71.833,190.751 C72.144,191.687 72.535,192.546 73.003,193.325 C73.471,194.107 74.327,194.495 75.577,194.495 C76.513,194.495 77.135,194.341 77.449,194.026 L87.043,184.199 L87.98,142.079 L119.57,112.36 C120.191,112.36 120.659,112.208 120.973,111.893 L121.208,111.893 L121.208,111.893 Z" id="Shape" sketch:type="MSShapeGroup"></path>
        </g>
    </g>
</svg>