<?xml version="1.0" encoding="UTF-8" standalone="no"?>
<svg width="458px" height="448px" viewBox="0 0 458 448" version="1.1" xmlns="http://www.w3.org/2000/svg" xmlns:xlink="http://www.w3.org/1999/xlink" xmlns:sketch="http://www.bohemiancoding.com/sketch/ns">
    <!-- Generator: Sketch 3.2.2 (9983) - http://www.bohemiancoding.com/sketch -->
    <title>Untitled 2</title>
    <desc>Created with Sketch.</desc>
    <defs></defs>
    <g id="Page-1" stroke="none" stroke-width="1" fill="none" fill-rule="evenodd" sketch:type="MSPage">
        <g id="1440768896_aiga_departingflights" sketch:type="MSLayerGroup" transform="translate(13.000000, 8.000000)" stroke="#979797" stroke-width="15">
            <path d="M339.68032,431.72254 C339.20649,430.97913 316.35103,387.06654 288.89042,334.13903 C261.42982,281.2115 238.5353,237.47293 238.01371,236.9422 C237.40475,236.3226 222.87159,250.16767 197.40456,275.62871 C160.19988,312.82465 157.74472,315.4955 157.75908,318.75711 C157.76748,320.66943 159.29656,334.73427 161.157,350.01232 L164.53962,377.79058 L148.46254,393.93832 L132.38546,410.08604 L113.72849,374.57029 L95.071547,339.05455 L59.95992,320.72348 C40.648539,310.6414 24.838515,302.16398 24.826552,301.88476 C24.814586,301.60554 31.905134,294.28717 40.583321,285.6217 L56.361846,269.86631 L87.312123,273.62282 L118.2624,277.37935 L158.35096,237.3056 C189.61286,206.05523 198.13431,197.01341 197.05345,196.23976 C196.29113,195.69412 151.64225,172.03495 97.833713,143.66383 L0,92.079986 L20.204074,71.875926 L40.408158,51.671865 L161.17031,83.675347 L281.93249,115.67882 L337.1518,60.569475 C375.85615,21.942215 393.70632,4.7904897 396.8355,3.2211495 C399.71737,1.7758285 403.77566,0.8204267 408.28434,0.525862 C417.1547,-0.0536652 423.75568,2.5390314 429.62708,8.908736 C435.08313,14.827845 436.85127,19.292794 436.82691,27.089953 C436.7893,39.133211 437.47031,38.318501 375.46076,100.50395 L319.56672,156.55652 L343.71016,249.81214 C356.98905,301.10272 370.74731,354.28843 374.28406,368.00258 L380.71451,392.9374 L360.62817,413.00581 C345.70391,427.91672 340.32043,432.72684 339.68032,431.72254 L339.68032,431.72254 Z" id="path1962" sketch:type="MSShapeGroup"></path>
        </g>
    </g>
</svg>