<?xml version="1.0" encoding="UTF-8" standalone="no"?>
<svg width="24px" height="25px" viewBox="0 0 24 25" version="1.1" xmlns="http://www.w3.org/2000/svg" xmlns:xlink="http://www.w3.org/1999/xlink" xmlns:sketch="http://www.bohemiancoding.com/sketch/ns">
    <!-- Generator: Sketch 3.2.2 (9983) - http://www.bohemiancoding.com/sketch -->
    <title>Untitled 3</title>
    <desc>Created with Sketch.</desc>
    <defs>
        <path id="path-1" d="M16.392,2.702 L13.84,5.254 C11.224,4.735 0.748,2.235 0.611,2.406 C0.458,2.598 0.404,2.73 0.097,3.114 C3.119,5.403 6.198,7.591 9.228,9.866 L5.373,13.721 L0,14.056 L4.723,16.795 L7.374,21.43 L7.707,16.075 C8.968,14.825 10.238,13.583 11.505,12.339 C13.805,15.399 16.015,18.51 18.327,21.563 C18.711,21.255 18.843,21.202 19.035,21.048 C19.208,20.91 16.628,10.111 16.165,7.705 C17.034,6.822 17.895,5.932 18.745,5.03 C23.273,0.231 21.333,-2.24 16.392,2.702 L16.392,2.702 Z"></path>
    </defs>
    <g id="Page-1" stroke="none" stroke-width="1" fill="none" fill-rule="evenodd" sketch:type="MSPage">
        <g id="1440769071_airplane1" sketch:type="MSLayerGroup" transform="translate(2.000000, 1.000000)">
            <g id="Shape">
                <use stroke="none" sketch:type="MSShapeGroup" xlink:href="#path-1"></use>
                <use stroke="none" xlink:href="#path-1"></use>
                <use stroke="#979797" stroke-width="1" xlink:href="#path-1"></use>
            </g>
        </g>
    </g>
</svg>