<svg xmlns="http://www.w3.org/2000/svg" width="155" height="108" version="1.1" xmlns:xlink="http://www.w3.org/1999/xlink"><defs><path id="a" d="M0 .882h154.711V108H0"/></defs><g fill="none" stroke="none" stroke-width="1"><path fill="#BD1F25" d="M49.6021 53.042c-5.109 0-9.254-4.143-9.254-9.254s4.145-9.254 9.254-9.254c5.111 0 9.256 4.143 9.256 9.254s-4.145 9.254-9.256 9.254m75.281-4.967c.121-1.156.182-2.329.182-3.516 0-18.6-15.074-33.677-33.676-33.677-11.033 0-20.824 5.305-26.969 13.503-3.125-1.384-6.578-2.161-10.216-2.161-13.95 0-25.258 11.311-25.258 25.259 0 .266.01.528.019.791-10.902 2.797-18.965 12.691-18.965 24.468 0 13.949 11.309 25.258 25.26 25.258h84.02v-.005c.058.001.115.005.174.005 13.949 0 25.257-11.309 25.257-25.258 0-12.085-8.488-22.182-19.828-24.667"/><path fill="#BD1F25" d="M49.6021 39.5337c-2.346 0-4.254 1.909-4.254 4.254 0 2.346 1.908 4.254 4.254 4.254 2.347 0 4.256-1.908 4.256-4.254 0-2.345-1.909-4.254-4.256-4.254zm69.604 63.461l-83.945.005c-16.686 0-30.261-13.573-30.261-30.257 0-12.533 7.679-23.61 19.081-28.128 1.449-15.345 14.406-27.391 30.123-27.391 2.946 0 5.832.42 8.62 1.252 7.317-8.047 17.535-12.594 28.565-12.594 21.276 0 38.593 17.27 38.676 38.527 11.6 4.367 19.646 15.675 19.646 28.334 0 16.684-13.573 30.257-30.257 30.257l-.248-.005z"/><mask id="b" fill="#fff"><use xlink:href="#a"/></mask><path fill="#FEFEFE" d="M91.3892.8818c-11.232 0-22.054 4.41-30.114 12.054-2.313-.473-4.675-.712-7.071-.712-17.292 0-31.716 12.514-34.695 28.96-11.77 5.864-19.509 17.978-19.509 31.558 0 19.441 15.818 35.258 35.26 35.258l83.861-.005c.111.003.221.005.333.005 19.441 0 35.257-15.817 35.257-35.258 0-8.086-2.808-15.988-7.908-22.249-3.24-3.977-7.315-7.191-11.876-9.425-1.784-22.458-20.63-40.186-43.538-40.186m-41.787 52.16c5.111 0 9.256-4.143 9.256-9.254s-4.145-9.254-9.256-9.254c-5.109 0-9.254 4.143-9.254 9.254s4.145 9.254 9.254 9.254m41.787-42.16c18.602 0 33.676 15.077 33.676 33.677 0 1.187-.061 2.36-.182 3.516 11.34 2.485 19.828 12.582 19.828 24.667 0 13.95-11.308 25.258-25.257 25.258-.059 0-.116-.004-.174-.005l-84.02.005c-13.951 0-25.26-11.308-25.26-25.258 0-11.777 8.063-21.671 18.965-24.467-.01-.264-.019-.526-.019-.792 0-13.948 11.308-25.259 25.258-25.259 3.638 0 7.091.777 10.216 2.161 6.145-8.198 15.936-13.503 26.969-13.503" mask="url(#b)"/></g></svg>